<?xml version="1.0" encoding="iso-8859-1"?>
<!-- Generator: Adobe Illustrator 19.0.0, SVG Export Plug-In . SVG Version: 6.00 Build 0)  -->
<svg xmlns="http://www.w3.org/2000/svg" xmlns:xlink="http://www.w3.org/1999/xlink" version="1.1" id="Layer_1" x="0px" y="0px" viewBox="0 0 512 512" style="enable-background:new 0 0 512 512;" xml:space="preserve">
<g>
	<path style="fill:#3E3B43;" d="M139.158,40.58c19.186,0,34.739,15.553,34.739,34.739s-15.553,34.739-34.739,34.739L139.158,40.58   L139.158,40.58z"/>
	<path style="fill:#3E3B43;" d="M375.727,40.58c-19.186,0-34.739,15.553-34.739,34.739s15.553,34.739,34.739,34.739V40.58z"/>
</g>
<rect x="219.748" y="148.463" style="fill:#ACAAB1;" width="70.722" height="46.699"/>
<rect x="222.787" y="151.867" style="fill:#3E3B43;" width="70.722" height="13.311"/>
<g>
	<rect x="98.99" y="198.525" style="fill:#77757E;" width="71.527" height="29.529"/>
	<rect x="336.991" y="198.525" style="fill:#77757E;" width="75.68" height="29.529"/>
	<rect x="180.211" y="360.37" style="fill:#77757E;" width="48.897" height="118.803"/>
	<rect x="291.417" y="360.37" style="fill:#77757E;" width="48.897" height="118.803"/>
</g>
<g>
	<rect x="180.211" y="360.37" style="fill:#3E3B43;" width="48.897" height="33.264"/>
	<rect x="291.417" y="360.37" style="fill:#3E3B43;" width="48.897" height="33.264"/>
</g>
<rect x="173.9" y="7.597" style="fill:#ACAAB1;" width="166.413" height="144.27"/>
<rect x="151.027" y="182.956" style="fill:#4675CF;" width="212.14" height="183.908"/>
<g>
	<circle style="fill:#FF3F62;" cx="222.787" cy="55.988" r="19.338"/>
	<circle style="fill:#FF3F62;" cx="293.513" cy="55.988" r="19.338"/>
</g>
<path style="fill:#3E3B43;" d="M291.363,122.859h-66.425c-6.499,0-11.816-5.317-11.816-11.816l0,0  c0-6.499,5.317-11.816,11.816-11.816h66.425c6.499,0,11.816,5.317,11.816,11.816l0,0  C303.18,117.541,297.862,122.859,291.363,122.859z"/>
<path style="fill:#52A2E7;" d="M194.357,283.245c0-34.654,28.092-62.746,62.746-62.746s62.746,28.092,62.746,62.746H194.357z"/>
<g>
	<path style="fill:#ACAAB1;" d="M98.988,369.276L98.988,369.276c-12.384,0-22.517-10.133-22.517-22.517V203.06   c0-12.384,10.133-22.517,22.517-22.517l0,0c12.384,0,22.517,10.133,22.517,22.517V346.76   C121.504,359.143,111.371,369.276,98.988,369.276z"/>
	<path style="fill:#ACAAB1;" d="M413.013,369.276L413.013,369.276c-12.384,0-22.517-10.133-22.517-22.517V203.06   c0-12.384,10.133-22.517,22.517-22.517l0,0c12.384,0,22.517,10.133,22.517,22.517V346.76   C435.53,359.143,425.397,369.276,413.013,369.276z"/>
</g>
<g>
	<path style="fill:#FFCD00;" d="M170.51,504.403v-2.971c0-17.963,14.697-32.661,32.661-32.661h2.971   c17.963,0,32.661,14.697,32.661,32.661v2.971H170.51z"/>
	<path style="fill:#FFCD00;" d="M281.717,504.403v-2.971c0-17.963,14.697-32.661,32.661-32.661h2.971   c17.963,0,32.661,14.697,32.661,32.661v2.971H281.717z"/>
</g>
<g>
	<rect x="137.473" y="198.525" style="fill:#3E3B43;" width="13.559" height="29.529"/>
	<rect x="363.177" y="198.525" style="fill:#3E3B43;" width="13.559" height="29.529"/>
</g>
<g>
	<rect x="151.027" y="327.164" style="opacity:0.5;fill:#2F2D30;enable-background:new    ;" width="212.14" height="39.709"/>
	<rect x="327.671" y="182.956" style="opacity:0.5;fill:#2F2D30;enable-background:new    ;" width="35.505" height="144.209"/>
</g>
<g>
	<circle style="fill:#FF3F62;" cx="207.288" cy="327.164" r="13.498"/>
	<circle style="fill:#FF3F62;" cx="257.937" cy="327.164" r="13.498"/>
	<circle style="fill:#FF3F62;" cx="308.587" cy="327.164" r="13.498"/>
</g>
<g>
	<path style="fill:#77757E;" d="M413.013,369.276L413.013,369.276c-12.384,0-22.517-10.133-22.517-22.517v-23.571   c0-12.384,10.133-22.517,22.517-22.517l0,0c12.384,0,22.517,10.133,22.517,22.517v23.571   C435.53,359.143,425.397,369.276,413.013,369.276z"/>
	<path style="fill:#77757E;" d="M98.988,369.276L98.988,369.276c-12.384,0-22.517-10.133-22.517-22.517v-23.571   c0-12.384,10.133-22.517,22.517-22.517l0,0c12.384,0,22.517,10.133,22.517,22.517v23.571   C121.504,359.143,111.371,369.276,98.988,369.276z"/>
</g>
<rect x="319.851" y="7.597" style="opacity:0.1;fill:#2F2D30;enable-background:new    ;" width="20.462" height="144.27"/>
<path d="M249.724,55.984c0-14.851-12.083-26.934-26.933-26.934s-26.933,12.083-26.933,26.934s12.083,26.934,26.933,26.934  S249.724,70.835,249.724,55.984z M211.051,55.984c0-6.473,5.267-11.74,11.738-11.74c6.472,0,11.738,5.267,11.738,11.74  s-5.267,11.74-11.738,11.74C216.318,67.723,211.051,62.456,211.051,55.984z"/>
<path d="M293.511,82.917c14.851,0,26.934-12.083,26.934-26.934s-12.083-26.934-26.934-26.934c-14.851,0-26.933,12.083-26.933,26.934  S278.661,82.917,293.511,82.917z M293.511,44.244c6.473,0,11.74,5.267,11.74,11.74s-5.267,11.74-11.74,11.74  c-6.473,0-11.738-5.267-11.738-11.74S287.039,44.244,293.511,44.244z"/>
<path d="M291.364,130.455c10.705,0,19.414-8.71,19.414-19.414s-8.709-19.414-19.414-19.414h-66.425  c-10.705,0-19.415,8.71-19.415,19.414s8.71,19.414,19.415,19.414H291.364z M220.719,111.042c0-2.287,1.933-4.219,4.22-4.219h66.425  c2.287,0,4.219,1.932,4.219,4.219c0,2.287-1.932,4.219-4.219,4.219h-66.425C222.652,115.261,220.719,113.329,220.719,111.042z"/>
<path d="M319.85,290.842c4.196,0,7.597-3.401,7.597-7.597c0-38.787-31.557-70.343-70.344-70.343s-70.344,31.556-70.344,70.343  c0,4.197,3.402,7.597,7.597,7.597H319.85z M257.104,228.096c27.834,0,50.917,20.723,54.628,47.551h-47.031v-26.942  c0-4.197-3.402-7.597-7.597-7.597c-4.196,0-7.597,3.401-7.597,7.597v26.942h-47.03C206.188,248.819,229.271,228.096,257.104,228.096  z"/>
<path d="M207.284,306.066c-11.632,0-21.095,9.463-21.095,21.095c0,11.632,9.463,21.095,21.095,21.095  c11.632,0,21.095-9.463,21.095-21.095C228.379,315.529,218.916,306.066,207.284,306.066z M207.284,333.062  c-3.254,0-5.901-2.647-5.901-5.901s2.647-5.901,5.901-5.901c3.254,0,5.901,2.647,5.901,5.901S210.538,333.062,207.284,333.062z"/>
<path d="M257.933,306.066c-11.632,0-21.095,9.463-21.095,21.095c0,11.632,9.463,21.095,21.095,21.095  c11.632,0,21.095-9.463,21.095-21.095C279.029,315.529,269.565,306.066,257.933,306.066z M257.933,333.062  c-3.254,0-5.901-2.647-5.901-5.901s2.647-5.901,5.901-5.901c3.254,0,5.901,2.647,5.901,5.901S261.187,333.062,257.933,333.062z"/>
<path d="M308.583,306.066c-11.632,0-21.095,9.463-21.095,21.095c0,11.632,9.463,21.095,21.095,21.095  c11.632,0,21.095-9.463,21.095-21.095C329.678,315.529,320.215,306.066,308.583,306.066z M308.583,333.062  c-3.254,0-5.901-2.647-5.901-5.901s2.647-5.901,5.901-5.901s5.901,2.647,5.901,5.901S311.836,333.062,308.583,333.062z"/>
<path d="M413.013,172.946c-12.29,0-22.876,7.404-27.553,17.982h-14.687v-7.973c0-4.197-3.402-7.597-7.597-7.597h-62.067V159.46  h39.201c4.196,0,7.597-3.401,7.597-7.597v-44.671c7.446,6.508,17.177,10.465,27.821,10.465c4.196,0,7.597-3.401,7.597-7.597V40.58  c0-4.197-3.402-7.597-7.597-7.597c-10.643,0-20.374,3.957-27.821,10.465V7.597c0-4.197-3.402-7.597-7.597-7.597H173.897  c-4.196,0-7.597,3.401-7.597,7.597v35.262c-7.354-6.16-16.821-9.877-27.142-9.877c-4.196,0-7.597,3.401-7.597,7.597v69.48  c0,4.197,3.402,7.597,7.597,7.597c10.321,0,19.788-3.718,27.142-9.877v44.083c0,4.197,3.402,7.597,7.597,7.597h41.296v15.897  h-64.162c-4.196,0-7.597,3.401-7.597,7.597v7.973H126.54c-4.676-10.578-15.263-17.982-27.552-17.982  c-16.605,0-30.114,13.509-30.114,30.114V346.76c0,16.606,13.509,30.115,30.114,30.115s30.114-13.509,30.114-30.115V235.651h14.333  v131.214c0,4.197,3.402,7.597,7.597,7.597h21.582v94.308c0,1.776,0.614,3.406,1.635,4.699c-7.009,7.248-11.335,17.106-11.335,27.961  v2.971c0,4.197,3.402,7.597,7.597,7.597h68.293c4.196,0,7.597-3.401,7.597-7.597v-2.971c0-10.855-4.326-20.714-11.335-27.961  c1.021-1.294,1.635-2.923,1.635-4.699v-94.308h47.119v94.308c0,1.776,0.614,3.406,1.635,4.699  c-7.009,7.248-11.335,17.106-11.335,27.961v2.971c0,4.197,3.402,7.597,7.597,7.597h68.293c4.196,0,7.597-3.401,7.597-7.597v-2.971  c0-10.855-4.326-20.714-11.335-27.961c1.021-1.294,1.635-2.923,1.635-4.699v-94.308h15.269c4.196,0,7.597-3.401,7.597-7.597V235.651  h12.126V346.76c0,16.606,13.509,30.115,30.114,30.115c16.605,0,30.114-13.509,30.114-30.115V203.06  C443.128,186.455,429.618,172.946,413.013,172.946z M368.13,49.26v52.12c-11.281-3.294-19.545-13.73-19.545-26.06  S356.85,52.554,368.13,49.26z M146.755,101.38V49.26c11.281,3.294,19.545,13.731,19.545,26.061S158.036,98.085,146.755,101.38z   M181.494,15.195h151.218v129.071h-39.201h-70.721h-41.296L181.494,15.195L181.494,15.195z M230.388,159.46h55.526v15.897h-55.526  L230.388,159.46L230.388,159.46z M113.907,346.759c0,8.226-6.693,14.92-14.919,14.92c-8.226,0-14.919-6.693-14.919-14.92V203.06  c0-8.226,6.693-14.919,14.919-14.919s14.919,6.692,14.919,14.919v24.993V346.759z M129.102,220.456v-14.334h14.333v14.333h-14.333  V220.456z M178.535,496.805c2.177-11.618,12.396-20.437,24.636-20.437h2.971c12.24,0,22.459,8.819,24.636,20.437H178.535z   M221.506,461.173h-15.364h-2.971h-15.363v-86.711h33.698L221.506,461.173L221.506,461.173z M289.742,496.805  c2.177-11.618,12.396-20.437,24.636-20.437h2.971c12.24,0,22.459,8.819,24.636,20.437H289.742z M332.713,461.173h-15.364h-2.971  h-15.364v-86.711h33.698v86.711H332.713z M355.578,359.268h-15.269h-48.893h-62.314h-48.892h-21.582V228.054v-29.529v-7.973h64.162  h70.721h62.067v7.973v29.528V359.268z M382.894,220.456h-12.121v-14.334h12.121V220.456z M427.933,346.759  c0,8.226-6.693,14.92-14.919,14.92s-14.919-6.693-14.919-14.92V203.06c0-8.226,6.693-14.919,14.919-14.919  s14.919,6.692,14.919,14.919V346.759z"/>
<g>
</g>
<g>
</g>
<g>
</g>
<g>
</g>
<g>
</g>
<g>
</g>
<g>
</g>
<g>
</g>
<g>
</g>
<g>
</g>
<g>
</g>
<g>
</g>
<g>
</g>
<g>
</g>
<g>
</g>
</svg>
